<svg width="20" height="20" viewBox="0 0 20 20" fill="none" xmlns="http://www.w3.org/2000/svg">
<g id="Duplicate">
<path id="Vector" d="M9.16406 14.1654H3.33073C2.8887 14.1654 2.46478 13.9898 2.15222 13.6772C1.83966 13.3646 1.66406 12.9407 1.66406 12.4987V2.4987C1.66406 2.05667 1.83966 1.63275 2.15222 1.32019C2.46478 1.00763 2.8887 0.832031 3.33073 0.832031H13.3307V2.4987H3.33073V12.4987H9.16406V10.832L12.4974 13.332L9.16406 15.832V14.1654ZM15.8307 17.4987V5.83203H6.66406V10.832H4.9974V5.83203C4.9974 5.39 5.17299 4.96608 5.48555 4.65352C5.79811 4.34096 6.22203 4.16536 6.66406 4.16536H15.8307C16.2728 4.16536 16.6967 4.34096 17.0092 4.65352C17.3218 4.96608 17.4974 5.39 17.4974 5.83203V17.4987C17.4974 17.9407 17.3218 18.3646 17.0092 18.6772C16.6967 18.9898 16.2728 19.1654 15.8307 19.1654H6.66406C6.22203 19.1654 5.79811 18.9898 5.48555 18.6772C5.17299 18.3646 4.9974 17.9407 4.9974 17.4987V15.832H6.66406V17.4987H15.8307Z" fill="#757575"/>
</g>
</svg>
